<?xml version="1.0" encoding="UTF-8" standalone="no"?><!DOCTYPE svg PUBLIC "-//W3C//DTD SVG 1.1//EN" "http://www.w3.org/Graphics/SVG/1.1/DTD/svg11.dtd"><svg width="100%" height="100%" viewBox="0 0 1351 466" version="1.1" xmlns="http://www.w3.org/2000/svg" xmlns:xlink="http://www.w3.org/1999/xlink" xml:space="preserve"  style="fill-rule:evenodd;clip-rule:evenodd;stroke-linejoin:round;stroke-miterlimit:2;"><path d="M271.5,390.683l27.667,-66.722l-166.889,-69.167c197.611,-80.888 376.778,-89.555 495.055,-59.666c-1.944,4.055 -3.722,8 -5.277,11.889c-20.778,50.777 -23.112,111.555 -6.334,166.611c22.167,73.278 97.834,102.722 155.111,87.944c30.5,-7.833 55.445,-27.111 70.278,-54.166c15.722,-28.723 19.5,-65.334 10.889,-105.945c-11.722,-55.278 -47.778,-101.833 -104.722,-135.611c13.666,-8.444 29.222,-15.333 46.666,-20.611c117.167,-35.556 290.667,56.278 491.5,162.611l31,16.389l33.834,-63.833l-30.945,-16.389c-178.944,-94.723 -337.555,-178.723 -469.722,-178.723c-26.611,0 -52.167,3.389 -76.555,10.834c-44.223,13.444 -76.667,33.944 -100.389,56.555c-147.056,-47.777 -353.5,-29.389 -555,50.223l64.333,-155.223l-66.722,-27.666l-115.278,278.166l271.556,112.5l-0.056,0Zm417.333,-156.333c2.056,-5 4.334,-9.833 6.834,-14.444c0.166,0.111 0.389,0.166 0.555,0.277c33.111,16.778 74.778,47.111 85.167,96.278c8.667,40.889 -1.722,68.333 -28.556,75.222c-4.166,1.056 -8.5,1.611 -13,1.611c-22.444,0 -46.889,-13.555 -55.111,-40.611c-12,-39.5 -10.5,-82.611 4.111,-118.277l0,-0.056Z" style="fill-rule:nonzero;"/></svg>