<svg class="twisted-line twisted-line--1" width="100%" height="100%" viewBox="0 0 858 2109" version="1.1" xmlns="http://www.w3.org/2000/svg" xmlns:xlink="http://www.w3.org/1999/xlink" xml:space="preserve" xmlns:serif="http://www.serif.com/" style="fill-rule:evenodd;clip-rule:evenodd;stroke-linejoin:round;stroke-miterlimit:1.5;/*visibility:hidden;*/pointer-events:none;">
	<rect x="0" y="0" width="857.75" height="2108.5" style="fill:none;" />
	<clipPath id="_clip1">
		<rect x="0" y="0" width="857.75" height="2108.5" />
	</clipPath>
	<g clip-path="url(#_clip1)">
		<path d="M17.5,31.75c113.083,53.75 224.086,65.601 282.25,222.75c47.28,127.744 -99.385,492.984 -113.25,647.5c-8.829,98.397 -22.501,285.334 141.75,372.75c164.251,87.416 394.378,13.095 411.25,-95.25c9.495,-60.975 -28.571,-154.231 -140,-149.25c-109.652,4.901 -300.317,130.756 -320.25,301.5c-15.879,136.02 95.486,242.078 201.25,293.25c90.287,43.684 204.094,91.342 263.5,153c66.55,69.073 96.832,238.16 61,312" style="fill:none;stroke:#f3b5ba;stroke-width:69px;" />
	</g>
</svg>
