<svg class="twisted-line twisted-line--2" width="100%" height="100%" viewBox="0 0 9942 11160" version="1.1" xmlns="http://www.w3.org/2000/svg" xmlns:xlink="http://www.w3.org/1999/xlink" xml:space="preserve"  style="fill-rule:evenodd;clip-rule:evenodd;stroke-miterlimit:15;visibility:hidden;pointer-events:none;">
	<g transform="matrix(5.63889,0,0,5.63889,0,0)">
		<g transform="matrix(1,0,0,1,-64,-295)">
			<path d="M116,25c-82,104 -119.982,267.024 -1,401c61.389,69.126 135.767,139.881 285,173c90.621,20.111 111.037,34.575 151,69c33.474,28.836 74.728,97.312 60,159c-12.757,53.433 -100.231,123.944 -183,58c-53.524,-42.644 -78.026,-125.607 -63,-198c14.049,-67.681 80.298,-157.952 167,-213.656c66.101,-42.468 204.194,-109.05 353,50.656c46.885,50.32 98.612,136.847 100,324c1.455,196.164 -77.396,420.382 -56,636c30.136,303.692 231.755,496.803 826,445" style="fill:none;stroke:#c2decb;stroke-width:74.24px;">
			</path>
		</g>
	</g>
</svg>
