<svg class="lab-logo" xmlns="http://www.w3.org/2000/svg" viewBox="0 0 283.46 283.46">
	<path class="l" d="M173.62,197.83c-21.45,0-38.59-6.67-50.41-18.93-6.48,2.76-13.61,5.39-21.42,7.93l-5.94-18.29c6.01-1.95,11.42-3.92,16.29-5.89-4.83-10.33-7.38-22.73-7.38-36.92,0-24.45,11.36-50.77,36.29-50.77,23.41,0,34.07,21.71,34.07,41.88,0,22.23-10.35,39.06-33.48,52.84,7.93,5.99,18.5,8.92,31.98,8.92,1.44,0,5.49-.45,7.67-.69l1.73-.19,2.05,19.12-1.65.18c-4.13.46-7.48.81-9.8.81M141.05,94.18c-14,0-17.06,22.77-17.06,31.54,0,8,1.06,18.84,5.6,28.64,26.3-14.85,26.29-28.99,26.29-37.53,0-2.32-.42-22.65-14.83-22.65" />
	<g class="letters">
		<g>
			<path d="M163.95,35.19l.04-.08-2.68-1.51-.05.1c-.54,1.17-1.21,1.62-2.24,1.52-1.04-.1-1.85-.76-3-1.93l-.79-.82,3.97-7.46c.52-.97,1.12-1.59,2.36-1.47.22.02.35.05.55.12l.12.04.29-2.89v-.08s-.07-.02-.07-.02c-.28-.09-.63-.18-1.04-.22-2.72-.27-4.17,1.39-5.51,3.97l-2.96,5.7c-.96-.82-1.97-1.26-3.07-1.37-1.36-.14-2.56.16-3.47.86-.92.7-1.47,1.73-1.59,2.99-.11,1.15.22,2.27.94,3.14.25.3.54.57.87.79.61.42,1.33.67,2.08.74,2.11.19,3.51-.43,4.82-2.14l.8.86c1.26,1.4,2.63,2.1,4.42,2.28,2.5.25,4.26-.8,5.24-3.13ZM151.4,32.88c-.77,1.19-1.36,1.6-2.17,1.52-.86-.09-1.33-.63-1.24-1.44.04-.39.21-.71.49-.93.29-.22.67-.32,1.11-.27.32.03.64.16.98.39s.61.51.83.74Z" />
			<polygon points="180.55 28.41 172.55 26.16 171.46 30.06 176.98 31.61 176.21 34.35 170.69 32.8 169.4 37.39 177.62 39.7 176.85 42.44 165.57 39.27 170.27 22.56 181.32 25.67 180.55 28.41" />
			<path d="M194.7,42.67c.88-1.86,1.22-4.05.8-5.81-1.82.81-3.34,2.52-4.15,4.23-.61,1.3-.33,2.38.72,2.87,1.03.48,2.02,0,2.63-1.29M185.89,34c2.5-3.35,5.67-4.1,8.58-2.73,1.21.57,2.1,1.4,2.74,2.37,1.24-.08,2.53.12,3.81.72,3.56,1.68,4.74,5.41,2.66,9.81-1.11,2.34-3.24,5.18-6.83,7.68l-3.16-1.49c3.72-2.47,5.89-4.95,7.04-7.37,1.25-2.66,1.09-5.01-1.26-6.12-.35-.17-.73-.29-1.08-.36.57,2.65.05,5.58-.87,7.52-1.38,2.93-4.07,3.79-6.79,2.5-2.64-1.25-3.64-3.84-2.25-6.77.93-1.97,3-4.14,5.57-5.3-.24-.19-.49-.36-.79-.5-1.61-.76-3.27-.29-4.66,1.58l-6.87,9.17-2.89-1.36,7.03-9.35Z" />
			<path d="M208.99,57.6c2.6,2.05,5.79,1.52,8.02-1.32,2.23-2.84,2-6.06-.6-8.11-2.6-2.05-5.79-1.52-8.02,1.32-2.23,2.84-2,6.06.6,8.1M205.81,47.46c3.19-4.06,8.37-4.75,12.41-1.57s4.57,8.38,1.38,12.43c-3.18,4.04-8.37,4.75-12.41,1.57-4.04-3.18-4.56-8.39-1.38-12.43" />
			<polygon points="228.84 55.42 231.08 57.95 227.05 72.61 236.59 64.18 238.58 66.43 225.58 77.93 223.34 75.4 227.42 60.66 217.82 69.16 215.84 66.92 228.84 55.42" />
			<path d="M232.47,83.6c.64,1.05,1.78,1.43,2.96.7,1.34-.82,1.99-2.77,1.48-5.67-1.17.31-2.23.75-3,1.22-1.87,1.15-2.19,2.54-1.44,3.74M244.15,79.35c-.65-1.06-2.36-1.37-4.28-1.22.86,4.53-.67,7.42-2.8,8.73-2.6,1.6-5.47.6-6.99-1.86-1.75-2.84-.83-5.85,2.21-7.72.97-.59,2.34-1.14,3.84-1.52-.15-.42-.33-.89-.53-1.36l2.79-.85c.26.6.5,1.16.69,1.75,3.09-.24,6.2.4,7.65,2.76,1.18,1.91.83,3.95-1.31,6.43l-8.97,10.41-1.65-2.68,8.66-10.11c1-1.16,1.15-2.01.69-2.76" />
			<path d="M242.02,101.12c1.22,3,4.17,4.13,7.39,2.83,3.2-1.29,4.51-4.15,3.3-7.15l-.97-2.4-10.68,4.33.97,2.4ZM253.24,90.35l2.16,5.34c1.96,4.83-.15,9.43-4.75,11.29-4.66,1.89-9.39.06-11.35-4.77l-2.16-5.34,16.09-6.52Z" />
			<path d="M251.73,116.98c.23,1.02.94,1.54,1.82,1.35.88-.2,1.27-.97,1.05-1.99-.2-.9-.92-1.86-1.89-2.4-.93.83-1.21,2-.98,3.04M249.81,113.69c-1.98.68-2.9,2.83-2.33,5.34.53,2.35,2.19,3.85,4.82,3.82l.04,3.12c-4.29-.08-6.84-2.45-7.74-6.49-.96-4.27.86-7.88,4.81-8.77.9-.2,1.98-.26,2.92,0,.46-.27,1-.51,1.81-.69,3.41-.77,6.93,1.5,7.92,5.88.78,3.48-.56,6.39-3.38,7.87l-1.52-2.76c1.75-.87,2.57-2.62,2.11-4.65-.5-2.21-2.11-3.6-4.03-3.46,1.12.86,1.71,1.91,1.99,3.16.57,2.53-.64,4.63-2.99,5.15-2.39.54-4.42-.9-5.01-3.52-.31-1.38-.2-2.78.59-4.02" />
			<g>
				<rect x="100.36" y="26.44" width="3.17" height="17.36" transform="translate(-5.85 37.66) rotate(-20.36)" />
				<path d="M115.32,33.3c1.01-.27,1.56-.99,1.33-1.86-.23-.87-1.07-1.23-2.07-.96-.94.25-1.84.92-2.31,1.95.88.87,2.05,1.14,3.06.87M111.06,30.12c.84-1.18,1.93-1.83,3.12-2.14,2.51-.66,4.66.42,5.28,2.75.6,2.26-.82,4.31-3.35,4.98-1.61.43-3,.15-4.17-.57.06.39.13.78.24,1.18l1.12,4.25-3,.79-1.31-4.97c-.33-1.23-.35-2.52,0-3.71-.31-.54-.54-1.13-.69-1.69-1-3.78,1.23-7.39,5.42-8.5l4.59-1.21.75,2.82-4.59,1.21c-2.42.64-3.84,2.57-3.4,4.8" />
				<polygon points="134.16 22.12 125.91 23.06 126.37 27.08 132.07 26.43 132.39 29.26 126.69 29.91 127.23 34.65 135.71 33.68 136.04 36.5 124.41 37.83 122.44 20.59 133.84 19.29 134.16 22.12" />
				<path d="M98.81,45.82c-2.83,1.4-5.53,1.64-7.9.8-.67.79-1.44,1.6-2.31,2.45l-1.98-2.03c.67-.65,1.25-1.27,1.77-1.84-1.31-1.05-2.46-2.52-3.39-4.39-1.6-3.23-1.82-7.45,1.47-9.08,3.09-1.53,5.92.64,7.24,3.3,1.45,2.93,1.19,5.84-.96,9.17,1.44.27,3.03-.03,4.81-.91.19-.09.7-.42.97-.59l.22-.14,1.52,2.39-.21.13c-.52.33-.93.6-1.24.75M87.73,34.26c-1.85.92-.76,4.12-.19,5.28.52,1.06,1.37,2.42,2.61,3.42,2.5-3.68,1.58-5.55,1.02-6.68-.15-.31-1.54-2.96-3.44-2.02" />
			</g>
		</g>
		<g>
			<path d="M222.92,214.34l.05.07,2.65-1.57-.06-.09c-.74-1.05-.8-1.86-.19-2.7.61-.85,1.58-1.23,3.17-1.63l1.11-.27,4.47,7.18c.58.94.82,1.77.09,2.77-.13.18-.22.27-.38.41l-.09.08,2.35,1.69.07.05.06-.05c.22-.2.47-.45.71-.79,1.6-2.22.88-4.31-.68-6.76l-3.45-5.42c1.19-.42,2.08-1.07,2.72-1.97.8-1.11,1.14-2.29,1-3.44-.14-1.14-.76-2.13-1.79-2.88-.94-.68-2.07-.95-3.19-.76-.39.07-.77.18-1.12.35-.66.32-1.25.81-1.69,1.43-1.22,1.73-1.38,3.25-.56,5.24l-1.14.26c-1.84.4-3.13,1.22-4.19,2.68-1.47,2.04-1.44,4.09.08,6.11ZM231.2,204.63c-.64-1.26-.7-1.98-.23-2.63.51-.7,1.21-.83,1.87-.35.32.23.51.54.56.89.05.36-.06.74-.32,1.09-.19.26-.46.47-.83.65s-.75.28-1.05.35Z" />
			<polygon points="220.48 232.11 226.43 226.31 223.61 223.41 219.5 227.41 217.51 225.37 221.62 221.37 218.29 217.95 212.18 223.92 210.19 221.88 218.57 213.7 230.69 226.13 222.47 234.14 220.48 232.11" />
			<path d="M201.06,237.22c1.17,1.69,2.9,3.09,4.63,3.6.21-1.97-.51-4.15-1.59-5.71-.82-1.18-1.89-1.48-2.85-.82-.93.65-1.02,1.74-.2,2.93M212.97,233.93c1.65,3.84.71,6.97-1.93,8.8-1.1.76-2.27,1.12-3.43,1.19-.55,1.11-1.37,2.13-2.53,2.93-3.23,2.24-7.06,1.39-9.82-2.6-1.48-2.13-2.86-5.4-3.23-9.75l2.87-1.99c.27,4.46,1.33,7.58,2.86,9.79,1.67,2.42,3.8,3.45,5.93,1.98.32-.22.62-.49.85-.76-2.58-.83-4.86-2.75-6.08-4.52-1.84-2.66-1.24-5.42,1.23-7.13,2.4-1.66,5.15-1.23,6.99,1.44,1.24,1.79,2.08,4.67,1.8,7.48.29-.11.56-.25.83-.43,1.47-1.01,1.89-2.68.96-4.83l-4.5-10.53,2.63-1.82,4.58,10.76Z" />
			<path d="M180.98,242.12c-3.08,1.23-4.21,4.25-2.87,7.6,1.34,3.35,4.24,4.76,7.32,3.54,3.07-1.23,4.21-4.25,2.87-7.6-1.34-3.35-4.24-4.76-7.32-3.54M191.35,244.44c1.91,4.79-.07,9.63-4.85,11.53-4.77,1.9-9.54-.23-11.45-5.03-1.91-4.77.07-9.63,4.85-11.53,4.77-1.9,9.55.25,11.45,5.03" />
			<polygon points="172.93 260.4 169.62 261.07 158.95 250.25 161.48 262.72 158.53 263.32 155.08 246.31 158.39 245.64 169.1 256.55 166.55 243.98 169.48 243.39 172.93 260.4" />
			<path d="M146.72,249.45c-1.23.03-2.13.82-2.09,2.21.04,1.57,1.4,3.11,4.16,4.12.32-1.17.47-2.3.44-3.21-.06-2.2-1.11-3.16-2.52-3.12M144.56,261.68c1.25-.03,2.37-1.36,3.2-3.1-4.35-1.52-6.09-4.3-6.16-6.8-.09-3.05,2.22-5.04,5.11-5.12,3.33-.09,5.48,2.21,5.58,5.77.03,1.13-.18,2.6-.6,4.09.44.08.93.16,1.44.22l-.66,2.84c-.65-.08-1.25-.15-1.86-.27-1.34,2.79-3.44,5.16-6.22,5.24-2.24.06-3.83-1.26-4.91-4.35l-4.52-12.98,3.15-.09,4.42,12.56c.5,1.44,1.17,2,2.05,1.98" />
			<path d="M126.78,248.94c-3.21-.45-5.66,1.54-6.14,4.98-.48,3.42,1.33,5.98,4.54,6.43l2.57.36,1.6-11.42-2.57-.36ZM130.48,264.05l-5.71-.8c-5.16-.72-8.09-4.85-7.4-9.76.7-4.97,4.65-8.16,9.81-7.44l5.71.8-2.41,17.19Z" />
			<path d="M108.18,249.42c-.99-.31-1.81.04-2.08.9-.27.86.21,1.59,1.2,1.9.88.28,2.07.14,3.02-.44-.25-1.22-1.13-2.05-2.14-2.37M112,249.4c.4-2.06-1-3.93-3.45-4.69-2.3-.72-4.43-.03-5.72,2.26l-2.72-1.53c2.21-3.67,5.54-4.69,9.49-3.46,4.17,1.3,6.39,4.69,5.18,8.55-.28.88-.77,1.84-1.47,2.52,0,.53-.06,1.12-.31,1.91-1.04,3.34-4.77,5.25-9.05,3.91-3.4-1.06-5.25-3.68-5.13-6.86l3.16.06c-.12,1.95.98,3.53,2.97,4.15,2.16.68,4.18-.03,5.01-1.76-1.31.54-2.51.52-3.73.14-2.47-.77-3.68-2.87-2.97-5.17.73-2.34,3-3.38,5.56-2.58,1.35.42,2.5,1.22,3.19,2.52" />
			<g>
				<rect x="252.42" y="152.01" width="3.17" height="17.36" transform="translate(52.95 384.11) rotate(-80.33)" />
				<path d="M248.88,173.18c-.27,1.01.07,1.84.95,2.08.87.24,1.6-.31,1.87-1.32.25-.94.13-2.05-.53-2.98-1.19.32-2.01,1.21-2.28,2.21M253.77,171.08c.6,1.31.62,2.59.29,3.77-.68,2.5-2.7,3.83-5.02,3.2-2.26-.61-3.32-2.87-2.64-5.4.44-1.61,1.37-2.67,2.58-3.33-.37-.15-.74-.27-1.14-.38l-4.24-1.15.81-2.99,4.96,1.35c1.23.33,2.36.95,3.21,1.86.62,0,1.24.1,1.8.25,3.78,1.03,5.78,4.76,4.65,8.94l-1.24,4.58-2.81-.76,1.24-4.58c.65-2.41-.31-4.62-2.46-5.35" />
				<polygon points="249.15 195.09 252.46 187.47 248.74 185.86 246.46 191.12 243.85 189.98 246.13 184.72 241.76 182.82 238.36 190.65 235.75 189.51 240.42 178.78 256.33 185.7 251.75 196.22 249.15 195.09" />
				<path d="M246.31,152.62c.2-3.15,1.34-5.61,3.26-7.24-.34-.98-.67-2.05-.97-3.22l2.75-.7c.23.9.47,1.72.71,2.45,1.56-.61,3.41-.87,5.5-.74,3.6.23,7.36,2.15,7.13,5.82-.22,3.44-3.51,4.81-6.48,4.62-3.27-.21-5.65-1.89-7.46-5.42-.96,1.11-1.49,2.64-1.61,4.62-.01.21.01.81.03,1.13v.26s-2.82.12-2.82.12v-.24c-.04-.61-.06-1.11-.04-1.45M261.86,148.81c.13-2.06-3.19-2.72-4.48-2.81-1.18-.08-2.78-.02-4.26.55,1.94,4.01,4.02,4.14,5.27,4.22.34.02,3.34.15,3.47-1.97" />
			</g>
		</g>
		<g>
			<path d="M38,175.37h-.09s.01,3.09.01,3.09h.11c1.28-.12,2.01.24,2.43,1.19.42.95.26,1.99-.19,3.56l-.32,1.09-8.45.24c-1.1.03-1.94-.19-2.44-1.32-.09-.2-.13-.33-.17-.54l-.02-.12-2.65,1.18-.07.03.02.08c.06.29.15.64.32,1.02,1.11,2.5,3.27,2.93,6.18,2.83l6.42-.25c-.24,1.24-.12,2.33.33,3.35.55,1.25,1.4,2.14,2.46,2.59,1.06.45,2.23.42,3.39-.1,1.06-.47,1.86-1.31,2.27-2.37.14-.37.23-.76.26-1.15.06-.73-.07-1.49-.39-2.18-.88-1.92-2.11-2.83-4.24-3.13l.35-1.12c.59-1.79.53-3.32-.2-4.97-1.02-2.29-2.81-3.31-5.31-3.01ZM42.2,187.41c1.41.08,2.06.39,2.39,1.13.35.79.11,1.46-.64,1.79-.36.16-.72.17-1.05.03-.34-.14-.61-.43-.78-.83-.13-.29-.18-.63-.14-1.04s.14-.78.23-1.09Z" />
			<polygon points="23.89 164.3 25.89 172.36 29.82 171.38 28.44 165.81 31.2 165.13 32.58 170.7 37.21 169.55 35.15 161.26 37.91 160.57 40.74 171.94 23.89 176.13 21.12 164.99 23.89 164.3" />
			<path d="M29.28,144.95c-2.05.16-4.13.94-5.45,2.18,1.6,1.18,3.84,1.66,5.73,1.51,1.43-.11,2.23-.89,2.14-2.04-.09-1.13-.99-1.76-2.43-1.65M26.11,156.89c-4.15-.52-6.37-2.9-6.62-6.11-.1-1.34.18-2.52.7-3.56-.68-1.04-1.15-2.26-1.25-3.66-.3-3.92,2.36-6.79,7.2-7.17,2.58-.2,6.1.25,10.05,2.13l.27,3.48c-3.99-2.02-7.21-2.67-9.89-2.47-2.93.22-4.9,1.54-4.7,4.12.03.39.11.78.23,1.12,2.02-1.8,4.82-2.81,6.97-2.97,3.23-.25,5.3,1.66,5.53,4.66.22,2.91-1.54,5.06-4.77,5.31-2.17.17-5.08-.56-7.36-2.22-.05.31-.07.61-.04.93.14,1.78,1.36,2.98,3.68,3.27l11.37,1.43.24,3.18-11.6-1.48Z" />
			<path d="M35.18,125.14c.49-3.27-1.54-5.78-5.11-6.32-3.57-.54-6.25,1.26-6.75,4.53-.49,3.27,1.54,5.78,5.11,6.32,3.57.54,6.25-1.26,6.75-4.53M27.94,132.92c-5.1-.77-8.27-4.92-7.51-10,.77-5.08,5.02-8.12,10.12-7.35,5.08.76,8.27,4.92,7.51,10-.77,5.08-5.04,8.11-10.12,7.35" />
			<polygon points="23.46 108.97 24.56 105.77 39.29 102.02 27.24 97.9 28.21 95.06 44.64 100.67 43.55 103.86 28.72 107.61 40.86 111.75 39.89 114.57 23.46 108.97" />
			<path d="M46.15,91.87c.59-1.07.37-2.25-.85-2.92-1.38-.76-3.39-.36-5.66,1.51.85.86,1.75,1.57,2.54,2,1.93,1.06,3.29.64,3.97-.6M36.68,83.83c-.6,1.09-.02,2.73,1.06,4.33,3.51-2.98,6.79-3.09,8.98-1.89,2.68,1.47,3.23,4.46,1.84,7-1.6,2.92-4.67,3.61-7.8,1.9-.99-.55-2.15-1.47-3.23-2.59-.29.34-.61.72-.91,1.14l-2.12-2.01c.39-.52.76-1.01,1.17-1.47-1.74-2.56-2.72-5.58-1.38-8.01,1.08-1.97,3.02-2.67,6.24-2.04l13.48,2.64-1.51,2.76-13.08-2.52c-1.5-.3-2.32,0-2.74.77" />
			<path d="M56.65,74.91c2.01-2.54,1.53-5.67-1.2-7.82-2.71-2.14-5.84-1.87-7.85.67l-1.61,2.03,9.05,7.14,1.61-2.03ZM41.74,70.48l3.57-4.52c3.23-4.09,8.27-4.53,12.16-1.46,3.94,3.11,4.7,8.13,1.47,12.22l-3.57,4.52-13.63-10.76Z" />
			<path d="M65.63,58.62c.77-.7.88-1.58.27-2.25-.61-.67-1.48-.63-2.25.08-.68.62-1.16,1.71-1.15,2.83,1.18.4,2.34.06,3.13-.66M63.72,61.92c1.57,1.38,3.9,1.11,5.79-.61,1.78-1.62,2.26-3.81.94-6.08l2.69-1.58c2.05,3.76,1.26,7.15-1.81,9.94-3.23,2.94-7.27,3.15-10,.16-.62-.68-1.2-1.6-1.44-2.54-.46-.27-.94-.62-1.5-1.23-2.35-2.58-2.13-6.76,1.19-9.79,2.63-2.4,5.82-2.68,8.51-.96l-1.65,2.69c-1.62-1.09-3.54-.93-5.08.47-1.68,1.53-2.08,3.62-1.01,5.21.2-1.4.82-2.43,1.76-3.29,1.91-1.74,4.34-1.73,5.96.05,1.65,1.81,1.4,4.29-.58,6.1-1.04.95-2.32,1.55-3.79,1.48" />
			<g>
				<rect x="59.94" y="227.7" width="17.36" height="3.17" transform="translate(-151.16 134.53) rotate(-50.02)" />
				<path d="M60.42,218.56c-.73-.74-1.63-.87-2.27-.23-.64.63-.54,1.53.19,2.28.68.69,1.71,1.14,2.84,1.04.32-1.19-.03-2.34-.76-3.09M59.76,223.84c-1.44-.14-2.55-.78-3.41-1.65-1.82-1.85-1.94-4.26-.23-5.94,1.67-1.64,4.16-1.42,5.99.45,1.17,1.19,1.61,2.54,1.57,3.91.31-.24.61-.5.91-.79l3.14-3.08,2.17,2.21-3.67,3.6c-.91.89-2.01,1.55-3.23,1.84-.32.54-.71,1.03-1.13,1.43-2.79,2.74-7.03,2.59-10.06-.5l-3.33-3.39,2.08-2.04,3.33,3.39c1.75,1.78,4.14,2.07,5.86.58" />
				<polygon points="41.37 207.73 46.28 214.43 49.54 212.04 46.16 207.41 48.45 205.73 51.84 210.36 55.69 207.55 50.65 200.65 52.95 198.97 59.86 208.42 45.85 218.67 39.08 209.4 41.37 207.73" />
				<path d="M79.46,226.72c2.62,1.77,4.17,3.99,4.6,6.47,1.02.2,2.11.46,3.27.79l-.78,2.73c-.9-.26-1.72-.46-2.48-.62-.26,1.66-.97,3.38-2.14,5.12-2.01,2.99-5.57,5.27-8.62,3.22-2.86-1.93-2.38-5.46-.71-7.92,1.83-2.72,4.48-3.92,8.44-3.7-.48-1.38-1.53-2.61-3.17-3.72-.18-.12-.71-.4-.99-.55l-.23-.12,1.32-2.51.22.11c.54.28.98.52,1.26.71M74.9,242.07c1.71,1.15,3.96-1.38,4.68-2.45.66-.98,1.42-2.39,1.67-3.96-4.44-.35-5.6,1.38-6.3,2.42-.19.28-1.81,2.8-.05,3.99" />
			</g>
		</g>
	</g>
</svg>
