<svg class="logo" width="100%" height="100%" viewBox="0 0 795 92" version="1.1" xmlns="http://www.w3.org/2000/svg" xmlns:xlink="http://www.w3.org/1999/xlink" xml:space="preserve" xmlns:serif="http://www.serif.com/" style="fill-rule:evenodd;clip-rule:evenodd;stroke-linejoin:round;stroke-miterlimit:2;">
	<rect x="0" y="0" width="795" height="92" style="fill:none;" />
	<path d="M101.48,60.13c-9.92,0.18 -17.36,5.85 -22.12,10.15c-4.55,4.11 -7.67,5.95 -14.17,5.98l-0.1,-0c-3.38,-0 -5.99,-0.96 -7.98,-2.94c-3.06,-3.04 -4.81,-8.67 -4.81,-15.44l0,-22.36c0,-1.38 -0.06,-2.78 -0.19,-4.17c5.85,-3.3 10.7,-6.8 13.49,-9.25l-9.19,-10.5c-2.05,1.8 -4.85,3.82 -8.05,5.8c-4.52,-9.46 -13.02,-16.6 -25.96,-16.6c-10.69,-0 -22.06,7.1 -22.06,20.25c0,9.78 7.01,19.64 22.66,19.64c4.95,-0 10.21,-1.18 15.34,-2.98l0,20.18c0,10.61 3.17,19.61 8.93,25.34c4.61,4.58 10.77,7 17.82,7l0.17,-0c10.76,-0.06 16.95,-3.71 23.45,-9.58c3.29,-2.97 7.68,-6.35 12.76,-6.55l-0,-13.96l0.01,-0.01Zm-78.47,-33.4c-3.97,-0 -8.7,-0.99 -8.7,-5.69c0,-6.22 7.77,-6.29 8.1,-6.29c7.51,-0 11.49,4.23 13.59,8.93c-4.61,1.84 -9.18,3.05 -12.99,3.05Z" style="fill:#6bb27d;fill-rule:nonzero;" />
	<path d="M313.18,90.67c-15.56,-0 -28.01,-4.84 -36.58,-13.74c-4.7,2 -9.87,3.91 -15.54,5.76l-4.31,-13.27c4.36,-1.42 8.29,-2.85 11.82,-4.28c-3.51,-7.49 -5.35,-16.49 -5.35,-26.79c0,-17.75 8.24,-36.84 26.34,-36.84c16.99,-0 24.72,15.75 24.72,30.39c0,16.13 -7.51,28.35 -24.29,38.34c5.75,4.35 13.42,6.48 23.2,6.48c1.04,-0 3.99,-0.33 5.57,-0.5l1.25,-0.14l1.49,13.88l-1.2,0.13c-3,0.33 -5.43,0.59 -7.11,0.59m-23.64,-75.22c-10.16,-0 -12.38,16.52 -12.38,22.89c0,5.8 0.77,13.67 4.06,20.78c19.08,-10.78 19.08,-21.03 19.08,-27.23c0,-1.68 -0.3,-16.44 -10.77,-16.44" style="fill:#fcbac2;fill-rule:nonzero;" />
	<path d="M752.2,53.21c2.01,-7.48 7.59,-10.94 14.06,-10.94c7.14,-0 11.72,3.79 12.94,10.94l-27.01,-0l0.01,-0Zm14.73,35.6c13.5,-0 23.21,-6.47 26.56,-17.52l-13.06,-2.68c-1.9,4.8 -6.14,8.03 -13.5,8.03c-8.03,-0 -13.84,-3.9 -15.18,-12.61l41.62,-0c0.45,-2.12 0.67,-4.35 0.67,-6.36c-0,-16.07 -11.38,-27.12 -27.79,-27.12c-16.41,-0 -28.9,12.5 -28.9,29.46c-0,16.96 11.05,28.79 29.57,28.79m-83.24,-29.12c-0,-9.82 5.91,-16.29 14.84,-16.29c8.93,-0 14.95,6.47 14.95,16.29c-0,9.82 -5.92,16.29 -14.95,16.29c-9.03,-0 -14.84,-6.47 -14.84,-16.29m12.73,29.13c7.03,-0 13.17,-2.9 17.63,-7.81l0.78,6.69l12.72,-0l-0,-83.69l-14.06,-0l-0,33.81c-4.35,-4.58 -10.27,-7.25 -17.07,-7.25c-15.51,-0 -27.45,12.39 -27.45,29.12c-0,16.73 11.94,29.13 27.45,29.13m-71.64,-17.41c-0,-4.24 3.24,-5.8 8.04,-7.03l13.84,-3.46l-0,1.34c-0,10.16 -7.7,14.84 -15.18,14.84c-4.13,-0 -6.69,-1.9 -6.69,-5.69m4,17.41c8.48,-0 14.62,-3.24 18.19,-8.37l0.78,7.25l12.5,-0l-0,-34.82c-0,-14.51 -9.93,-22.32 -24.55,-22.32c-14.62,-0 -23.21,7.14 -25.67,17.97l13.5,2.34c1.45,-5.8 6.14,-8.59 11.94,-8.59c5.8,-0 9.82,2.57 10.93,8.03l-14.39,3.35c-11.83,2.79 -21.65,7.14 -21.65,18.75c-0,10.6 8.48,16.4 18.41,16.4m-79.55,-1.11l14.17,-0l-0,-31.47c-0,-9.48 6.47,-12.61 12.39,-12.61c6.58,-0 11.38,4.24 11.38,12.61l-0,31.47l14.06,-0l-0,-33.7c-0,-15.4 -10.16,-23.43 -21.98,-23.43c-6.36,-0 -12.05,2.34 -16.4,6.81l-0.89,-5.58l-12.72,-0l-0,55.91l-0.01,-0.01Zm-54.68,-28.01c-0,-9.82 5.91,-16.29 15.06,-16.29c9.15,-0 15.07,6.47 15.07,16.29c-0,9.82 -6.03,16.29 -15.07,16.29c-9.04,-0 -15.06,-6.47 -15.06,-16.29m15.07,29.13c17.19,-0 29.8,-12.28 29.8,-29.13c-0,-16.85 -12.61,-29.12 -29.8,-29.12c-17.19,-0 -29.79,12.39 -29.79,29.12c-0,16.73 12.61,29.13 29.79,29.13m-118.51,-1.12l14.06,-0l-0,-34.26c-0,-7.36 5.13,-9.82 10.04,-9.82c5.36,-0 8.93,3.35 8.93,9.82l-0,34.26l14.06,-0l-0,-34.26c-0,-7.36 5.02,-9.82 10.04,-9.82c5.36,-0 8.93,3.35 8.93,9.82l-0,34.26l14.06,-0l-0,-35.37c-0,-14.28 -8.93,-21.76 -19.86,-21.76c-7.48,-0 -12.83,3.12 -16.74,8.15c-3.46,-5.47 -9.26,-8.15 -15.85,-8.15c-6.14,-0 -10.71,2.57 -14.17,6.58l-0.78,-5.36l-12.72,-0l-0,55.91Zm-51.78,-34.48c2.01,-7.48 7.59,-10.94 14.06,-10.94c7.14,-0 11.72,3.79 12.94,10.94l-27,-0Zm14.73,35.6c13.5,-0 23.21,-6.47 26.56,-17.52l-13.06,-2.68c-1.9,4.8 -6.14,8.03 -13.5,8.03c-8.03,-0 -13.84,-3.9 -15.18,-12.61l41.62,-0c0.45,-2.12 0.67,-4.35 0.67,-6.36c-0,-16.07 -11.38,-27.12 -27.79,-27.12c-16.41,-0 -28.9,12.5 -28.9,29.46c-0,16.96 11.05,28.79 29.57,28.79" style="fill:#fff;fill-rule:nonzero;" />
	<path d="M149.24,24.08c0,-5.8 3.01,-8.59 8.48,-8.59c1.9,-0 3.35,0.34 5.13,0.89l2.9,-11.94c-3.24,-1.11 -6.25,-1.56 -9.49,-1.56c-11.83,-0 -21.09,7.81 -21.09,21.43l0,7.48l-10.83,-0l0,12.28l10.83,-0l0,43.63l14.06,-0l0,-43.63l18.41,-0l0,-12.28l-18.41,-0l0,-7.7l0.01,-0.01Z" style="fill:#fff;fill-rule:nonzero;" />
	<g>
		<rect x="101.48" y="31.78" width="14.17" height="55.91" style="fill:#fff;fill-rule:nonzero;" />
		<path d="M108.62,6.01c-5.02,-0 -8.59,3.57 -8.59,8.48c0,4.91 3.57,8.37 8.48,8.37c4.91,-0 8.59,-3.57 8.59,-8.37c0,-4.8 -3.57,-8.48 -8.48,-8.48Z" style="fill:#fff;fill-rule:nonzero;" />
	</g>
	<path d="M197.78,76.64c-8.04,-0 -13.84,-3.9 -15.18,-12.61l41.62,-0c0.45,-2.12 0.67,-4.35 0.67,-6.36c0,-16.07 -11.38,-27.12 -27.79,-27.12c-16.41,-0 -28.9,12.5 -28.9,29.46c0,16.96 11.05,28.79 29.57,28.79c13.5,-0 23.21,-6.47 26.56,-17.52l-13.06,-2.68c-1.9,4.8 -6.14,8.03 -13.5,8.03l0.01,0.01Zm-0.67,-34.37c7.14,-0 11.72,3.79 12.94,10.94l-27,-0c2.01,-7.48 7.59,-10.94 14.06,-10.94Z" style="fill:#fff;fill-rule:nonzero;" />
</svg>
